<svg width="25" height="20" viewBox="0 0 25 20" fill="none" xmlns="http://www.w3.org/2000/svg">
<path fill-rule="evenodd" clip-rule="evenodd" d="M12.7263 6.80763C10.294 6.80763 8.32151 8.78453 8.32151 11.2234C8.32151 13.6612 10.294 15.6392 12.7263 15.6392C15.1596 15.6392 17.131 13.6612 17.131 11.2234C17.131 8.78453 15.1596 6.80763 12.7263 6.80763ZM20.4368 8.66655C19.8289 8.66655 19.3334 8.17252 19.3334 7.56399C19.3334 6.95545 19.8289 6.46142 20.4368 6.46142C21.0446 6.46142 21.5385 6.95545 21.5385 7.56399C21.5385 8.17252 21.0446 8.66655 20.4368 8.66655ZM12.7207 16.7186C9.70082 16.7186 7.25423 14.2654 7.25423 11.2399C7.25423 8.21451 9.70082 5.7624 12.7207 5.7624C15.7396 5.7624 18.1873 8.21451 18.1873 11.2399C18.1873 14.2654 15.7396 16.7186 12.7207 16.7186ZM24.8456 6.94546C24.8456 6.84181 24.8456 6.73928 24.8445 6.63674C24.8445 6.54963 24.8434 6.46253 24.8412 6.37543C24.8357 6.18689 24.8247 5.91125 24.7916 5.72381C24.7574 5.53417 24.7023 5.44156 24.6163 5.26846C24.5303 5.09976 24.4189 4.9443 24.2855 4.80979C24.1532 4.67417 23.9989 4.56281 23.8313 4.47571C23.6604 4.38861 23.4862 4.33238 23.2976 4.2982C23.1124 4.26402 22.9239 4.25299 22.7364 4.24858C22.6504 4.24638 22.5644 4.24528 22.4784 4.24528C22.377 4.24417 22.2745 4.24417 22.173 4.24417H19.7154C19.5544 4.23646 19.3935 4.23756 19.2358 4.20889C19.0208 4.1692 18.8212 4.08981 18.6261 3.98838C18.4353 3.89025 18.2611 3.76566 18.109 3.6113C17.9579 3.45694 17.7672 2.74469 17.6139 2.38635C17.5654 2.27389 17.5478 2.20884 17.5037 2.12174C17.4066 1.92879 17.2787 1.74907 17.1288 1.59471C16.9755 1.44035 16.8002 1.31025 16.6106 1.21102C16.4154 1.10958 16.2159 1.04674 16.0009 1.00815C15.7903 0.968456 15.5742 0.95743 15.3603 0.950815C15.2622 0.947507 10.1033 0.947507 10.0051 0.950815C9.79233 0.95743 9.57623 0.968456 9.36564 1.00815C9.15174 1.04674 8.95218 1.10958 8.75702 1.21102C8.56628 1.31025 8.39097 1.43925 8.23882 1.59361C8.08667 1.74797 7.95987 1.92769 7.86285 2.12174C7.81985 2.20884 7.78346 2.29594 7.75369 2.38525C7.60043 2.76674 7.4141 3.44481 7.26195 3.59917C7.1109 3.75353 6.93559 3.87922 6.74374 3.97735C6.54969 4.07989 6.35013 4.15817 6.13623 4.19676C5.92454 4.23535 5.70954 4.23315 5.49564 4.23756C5.39751 4.24197 5.50667 4.24197 5.40743 4.24307C5.29167 4.24417 5.1759 4.24417 5.05902 4.24417H3.26295C3.16151 4.24417 3.06008 4.24417 2.95754 4.24528C2.87154 4.24528 2.78554 4.24638 2.69954 4.24858C2.5121 4.25299 2.32356 4.26402 2.13833 4.2982C1.94979 4.33238 1.77559 4.38861 1.60469 4.47571C1.4371 4.56281 1.28274 4.67417 1.15043 4.80979C1.01702 4.9443 0.905665 5.09976 0.820768 5.26846C0.733665 5.44156 0.677435 5.61797 0.644358 5.80871C0.611281 5.99505 0.599153 6.18689 0.594742 6.37543C0.592537 6.46253 0.592537 6.54963 0.591435 6.63674C0.590332 6.73928 0.590332 6.84181 0.590332 6.94546V16.6238C0.590332 16.7274 0.590332 16.8299 0.591435 16.9325C0.592537 17.0207 0.592537 17.1067 0.594742 17.1938C0.599153 17.3834 0.611281 17.5731 0.644358 17.7605C0.677435 17.9513 0.733665 18.1277 0.820768 18.3008C0.905665 18.4706 1.01702 18.6249 1.15043 18.7594C1.28274 18.8939 1.4371 19.0064 1.60469 19.0935C1.77559 19.1806 1.94979 19.2368 2.13833 19.271C2.32356 19.3052 2.5121 19.3162 2.69954 19.3206C2.78554 19.3228 2.87154 19.3239 2.95754 19.325C3.06008 19.325 3.16151 19.325 3.26295 19.325H22.173C22.2745 19.325 22.377 19.325 22.4784 19.325C22.5644 19.3239 22.6504 19.3228 22.7364 19.3206C22.9239 19.3162 23.1124 19.3052 23.2976 19.271C23.4862 19.2368 23.6604 19.1806 23.8313 19.0935C23.9989 19.0064 24.1532 18.8939 24.2855 18.7594C24.4189 18.6249 24.5303 18.4706 24.6163 18.3008C24.7023 18.1277 24.7574 17.9513 24.7916 17.7605C24.8247 17.5731 24.8357 17.3834 24.8412 17.1938C24.8434 17.1067 24.8445 17.0207 24.8445 16.9325C24.8456 16.8299 24.8456 16.7274 24.8456 16.6238V6.94546Z" fill="white"/>
</svg>
