<svg width="12" height="29" viewBox="0 0 12 29" fill="none" xmlns="http://www.w3.org/2000/svg">
<path fill-rule="evenodd" clip-rule="evenodd" d="M7.38284 16.4445C7.38284 17.0531 6.88999 17.546 6.28138 17.546C5.67276 17.546 5.17991 17.0531 5.17991 16.4445C5.17991 15.8359 5.67276 15.343 6.28138 15.343C6.88999 15.343 7.38284 15.8359 7.38284 16.4445ZM4.44009 13.5282V16.4213C4.44009 17.4379 5.26481 18.2615 6.28138 18.2615C7.29794 18.2615 8.12266 17.4379 8.12266 16.4213V13.5282C8.12266 12.5106 7.29794 11.6869 6.28138 11.6869C5.26481 11.6869 4.44009 12.5106 4.44009 13.5282ZM11.7953 3.58088C11.7953 4.97894 11.7942 6.07488 10.416 7.99224C9.32555 9.50937 9.22191 10.1632 9.22191 11.8501V27.286C9.22191 28.2 8.48209 28.9399 7.56807 28.9399H4.99579C4.08176 28.9399 3.34194 28.2 3.34194 27.286V11.8501C3.34194 10.1632 3.2383 9.50937 2.14676 7.99224C0.769657 6.07488 0.768555 4.97894 0.768555 3.58088H11.7953ZM0.768555 1.19273C0.768555 0.888423 1.01553 0.641449 1.31984 0.641449H11.244C11.5483 0.641449 11.7953 0.888423 11.7953 1.19273V2.47832H0.768555V1.19273Z" fill="white"/>
</svg>
